# xmcd
#
# Track frame offsets: 
#        150
#        17064
#        35441
#        51192
#        70357
#        93190
#        112253
#        128395
#        151970
#        170309
#        188984
#
# Disc length: 2789 seconds
#
# Revision: 0
# Processed by: cddbd v1.5.2PL0 Copyright (c) Steve Scherf et al.
# Submitted via: ExactAudioCopy v0.95b3
#
DISCID=8b0ae30b
DTITLE=Jacob and the Jackals - South from Memphis
DYEAR=2007
DGENRE=Blues
TTITLE0=South from Memphis
TTITLE1=Caught in a trap
TTITLE2=Lover's lane
TTITLE3=Be my queen
TTITLE4=Everything I do
TTITLE5=Vicksburg blues
TTITLE6=The jackal boogie
TTITLE7=Pickin' up the pieces
TTITLE8=Put Your spell on someone else
TTITLE9=If You see my rider
TTITLE10=Bayou side
EXTD=
EXTT0=
EXTT1=
EXTT2=
EXTT3=
EXTT4=
EXTT5=
EXTT6=
EXTT7=
EXTT8=
EXTT9=
EXTT10=
PLAYORDER=
